<svg width="65" height="60" viewBox="0 0 65 60" fill="none" xmlns="http://www.w3.org/2000/svg">
<g clip-path="url(#clip0_236_1716)">
<path d="M2.86136 35.2933C3.44624 36.017 4.21316 36.6046 5.09876 37.0074C5.98437 37.4101 6.96325 37.6166 7.95454 37.6097L21.4057 37.6097L19.7181 48.8737C19.7081 48.9795 19.7081 49.0859 19.7181 49.1916C19.7595 50.224 20.2404 51.202 21.0603 51.9214C21.8801 52.6408 22.9757 53.046 24.1181 53.0523L28.1364 53.0523C29.0287 53.0524 29.9005 52.81 30.6386 52.3564C31.3767 51.9029 31.9469 51.2591 32.2752 50.5088L39.6488 36.883L41.8186 36.883C41.9048 37.9804 42.4465 39.0077 43.3352 39.7591C44.2239 40.5105 45.3938 40.9303 46.6104 40.9344L57.0781 40.9344C57.7135 40.9344 58.3426 40.8211 58.9295 40.6009C59.5164 40.3808 60.0495 40.0581 60.4984 39.6514C60.9472 39.2447 61.3029 38.762 61.5451 38.2308C61.7874 37.6997 61.9114 37.1305 61.9101 36.556L61.9101 12.0295C61.914 11.4534 61.792 10.8823 61.5509 10.349C61.3099 9.81574 60.9546 9.33084 60.5055 8.92222C60.0564 8.5136 59.5224 8.18931 58.9342 7.96803C58.346 7.74675 57.7152 7.63284 57.0781 7.63285L46.6205 7.63285C45.7255 7.63648 44.8493 7.86528 44.09 8.29363C43.3306 8.72198 42.7181 9.33298 42.3209 10.0582L39.8396 8.24146C39.4821 7.97785 39.0352 7.83351 38.5739 7.83269L17.3372 7.83269C15.2556 7.8225 13.2249 8.41477 11.5421 9.52291C9.85938 10.631 8.6128 12.1969 7.98468 13.9916L1.95725 30.1972C1.6495 31.0505 1.57099 31.9579 1.72821 32.8441C1.88544 33.7303 2.27388 34.5699 2.86136 35.2933V35.2933ZM45.8369 12.0022C45.8369 11.9056 45.858 11.8099 45.8989 11.7206C45.9398 11.6314 45.9997 11.5502 46.0753 11.4819C46.1508 11.4136 46.2405 11.3594 46.3392 11.3224C46.438 11.2854 46.5438 11.2664 46.6506 11.2664L57.0781 11.2664C57.1849 11.2664 57.2907 11.2854 57.3895 11.3224C57.4882 11.3594 57.5779 11.4136 57.6535 11.4819C57.729 11.5502 57.7889 11.6314 57.8298 11.7206C57.8707 11.8099 57.8918 11.9056 57.8918 12.0022L57.8918 36.5287C57.8918 36.6253 57.8707 36.721 57.8298 36.8103C57.7889 36.8996 57.729 36.9807 57.6535 37.049C57.5779 37.1173 57.4882 37.1715 57.3895 37.2085C57.2907 37.2455 57.1849 37.2645 57.0781 37.2645L46.6205 37.2645C46.4047 37.2645 46.1977 37.187 46.0451 37.049C45.8925 36.911 45.8068 36.7239 45.8068 36.5287L45.8068 12.0022L45.8369 12.0022ZM5.74448 31.3418L11.7719 15.1361C12.1375 14.0679 12.8726 13.134 13.869 12.4717C14.8654 11.8095 16.0705 11.4538 17.3071 11.4572L37.8506 11.4572L41.8186 14.3549L41.8186 33.2403L38.4734 33.2403C38.0969 33.2397 37.7277 33.3347 37.408 33.5146C37.0882 33.6945 36.8309 33.952 36.6652 34.2577L28.6989 49.0009C28.6687 49.0602 28.6419 49.1208 28.6186 49.1826C28.5893 49.2575 28.5348 49.3224 28.4627 49.368C28.3907 49.4136 28.3047 49.4377 28.2167 49.4369L24.1985 49.4369C24.108 49.4364 24.0202 49.4097 23.9478 49.3606C23.8755 49.3116 23.8225 49.2428 23.7966 49.1644L25.7455 36.0563C25.7876 35.7966 25.767 35.5318 25.685 35.28C25.6031 35.0282 25.4618 34.7954 25.2709 34.5977C25.0799 34.4 24.8439 34.2421 24.579 34.1348C24.3141 34.0275 24.0266 33.9734 23.7364 33.9761L7.95454 33.9761C7.59868 33.9764 7.24765 33.9016 6.9293 33.7578C6.61095 33.614 6.33404 33.4051 6.12052 33.1477C5.90701 32.8902 5.76276 32.5914 5.69923 32.2748C5.6357 31.9581 5.65463 31.6325 5.75452 31.3236L5.74448 31.3418Z" fill="#F04180"/>
</g>
<defs>
<clipPath id="clip0_236_1716">
<rect width="64.2926" height="58.1369" fill="white" transform="translate(64.293 59.0616) rotate(-180)"/>
</clipPath>
</defs>
</svg>
