<svg width="66" height="59" viewBox="0 0 66 59" fill="none" xmlns="http://www.w3.org/2000/svg">
<path d="M61.6045 24.4671C61.0196 23.7434 60.2527 23.1558 59.3671 22.753C58.4814 22.3503 57.5026 22.1438 56.5113 22.1507H43.0601L44.7478 10.8867C44.7577 10.7809 44.7577 10.6745 44.7478 10.5688C44.7063 9.53639 44.2255 8.5584 43.4056 7.83901C42.5857 7.11962 41.4901 6.71445 40.3477 6.7081H36.3294C35.4371 6.70796 34.5653 6.95041 33.8272 7.40397C33.0892 7.85754 32.519 8.50127 32.1906 9.25159L24.8171 22.8774H22.6472C22.561 21.78 22.0193 20.7527 21.1306 20.0013C20.2419 19.25 19.072 18.8301 17.8554 18.826H7.38775C6.75235 18.826 6.1232 18.9393 5.5363 19.1595C4.9494 19.3796 4.41628 19.7023 3.96746 20.109C3.51864 20.5157 3.16292 20.9984 2.92068 21.5296C2.67845 22.0607 2.55444 22.6299 2.55576 23.2044V47.731C2.55178 48.307 2.67383 48.8781 2.91489 49.4114C3.15594 49.9447 3.51123 50.4296 3.96032 50.8382C4.4094 51.2468 4.94342 51.5711 5.53164 51.7924C6.11985 52.0137 6.75066 52.1276 7.38775 52.1276H17.8453C18.7403 52.1239 19.6165 51.8951 20.3759 51.4668C21.1352 51.0384 21.7478 50.4274 22.1449 49.7022L24.6262 51.5189C24.9837 51.7826 25.4306 51.9269 25.8919 51.9277H47.1286C49.2103 51.9379 51.2409 51.3456 52.9237 50.2375C54.6064 49.1294 55.853 47.5635 56.4811 45.7688L62.5086 29.5632C62.8163 28.7099 62.8948 27.8025 62.7376 26.9163C62.5804 26.0301 62.1919 25.1905 61.6045 24.4671ZM18.6289 47.7582C18.6289 47.8548 18.6079 47.9505 18.567 48.0398C18.5261 48.1291 18.4661 48.2102 18.3906 48.2785C18.315 48.3468 18.2253 48.401 18.1266 48.438C18.0279 48.475 17.9221 48.494 17.8152 48.494H7.38775C7.28089 48.494 7.17508 48.475 7.07636 48.438C6.97763 48.401 6.88793 48.3468 6.81237 48.2785C6.73681 48.2102 6.67688 48.1291 6.63598 48.0398C6.59509 47.9505 6.57404 47.8548 6.57404 47.7582V23.2317C6.57404 23.1351 6.59509 23.0394 6.63598 22.9501C6.67688 22.8609 6.73681 22.7797 6.81237 22.7114C6.88793 22.6431 6.97763 22.5889 7.07636 22.5519C7.17508 22.5149 7.28089 22.4959 7.38775 22.4959H17.8453C18.0611 22.4959 18.2681 22.5734 18.4207 22.7114C18.5733 22.8494 18.659 23.0366 18.659 23.2317V47.7582H18.6289ZM58.7213 28.4186L52.6939 44.6243C52.3283 45.6925 51.5933 46.6264 50.5969 47.2887C49.6005 47.9509 48.3953 48.3066 47.1587 48.3032H26.6152L22.6472 45.4055V26.5201H25.9924C26.369 26.5208 26.7381 26.4257 27.0579 26.2458C27.3776 26.066 27.635 25.8084 27.8006 25.5027L35.7669 10.7595C35.7971 10.7002 35.8239 10.6396 35.8473 10.5778C35.8766 10.5029 35.931 10.438 36.0031 10.3924C36.0751 10.3468 36.1611 10.3227 36.2491 10.3235H40.2674C40.3578 10.324 40.4457 10.3507 40.518 10.3998C40.5904 10.4489 40.6434 10.5176 40.6692 10.596L38.7203 23.7041C38.6782 23.9638 38.6988 24.2286 38.7808 24.4804C38.8627 24.7322 39.004 24.965 39.195 25.1627C39.3859 25.3604 39.6219 25.5183 39.8868 25.6256C40.1517 25.7329 40.4392 25.7871 40.7295 25.7843H56.5113C56.8671 25.784 57.2182 25.8588 57.5365 26.0026C57.8549 26.1464 58.1318 26.3553 58.3453 26.6127C58.5588 26.8702 58.7031 27.169 58.7666 27.4857C58.8301 27.8023 58.8112 28.1279 58.7113 28.4368L58.7213 28.4186Z" fill="#F04180"/>
<path d="M12.1697 46.2503C14.1393 46.2503 15.736 44.8065 15.736 43.0255C15.736 41.2445 14.1393 39.8007 12.1697 39.8007C10.2002 39.8007 8.60352 41.2445 8.60352 43.0255C8.60352 44.8065 10.2002 46.2503 12.1697 46.2503Z" fill="#F04180"/>
</svg>
